<?xml version="1.0" encoding="utf-8"?>
<!-- Generator: Adobe Illustrator 16.0.0, SVG Export Plug-In . SVG Version: 6.00 Build 0)  -->
<!DOCTYPE svg PUBLIC "-//W3C//DTD SVG 1.1//EN" "http://www.w3.org/Graphics/SVG/1.1/DTD/svg11.dtd">
<svg version="1.1" id="Layer_1" xmlns="http://www.w3.org/2000/svg" xmlns:xlink="http://www.w3.org/1999/xlink" x="0px" y="0px"
	 width="160px" height="46px" viewBox="0 0 160 46" enable-background="new 0 0 160 46" xml:space="preserve">
<g>
	<rect x="0.059" y="0.071" fill="#E1241F" width="159.883" height="45.859"/>
	<g>
		<path fill="#FFFFFF" d="M37.244,38.332c-7.01,0-14.43-4.959-14.43-13.896c0-7.83,6.23-14.06,14.514-14.06
			c4.221,0,5.658,0.409,8.358,1.475v5.654H41.59v-2.418c-1.436-0.366-2.788-0.489-4.592-0.489c-4.636,0-8.773,3.486-8.773,9.592
			c0,5.74,4.225,9.883,9.31,9.883c1.393,0,2.62-0.084,4.056-0.492v-2.424h4.097v5.66C43.026,37.967,40.525,38.332,37.244,38.332"/>
		<path fill="#FFFFFF" d="M57.912,38.373c-5.661,0-9.353-3.895-9.353-9.797c0-5.33,3.404-9.801,9.801-9.801
			c5.698,0,9.39,3.939,9.39,9.801C67.75,34.189,64.015,38.373,57.912,38.373 M57.948,22.96c-1.308,0-2.251,0.532-2.416,0.695
			c-1.15,1.067-1.808,3.157-1.764,5.206c0.081,2.746,1.228,5.291,4.549,5.291c1.108,0,2.255-0.572,2.38-0.656
			c1.146-1.148,1.885-3.24,1.844-5.244C62.461,25.541,61.352,22.96,57.948,22.96"/>
		<polygon fill="#FFFFFF" points="69.753,37.842 69.753,34.564 72.096,34.564 72.096,11.19 69.753,11.19 69.753,7.915 77.056,7.915 
			77.056,34.564 79.433,34.564 79.433,37.842 		"/>
		<polygon fill="#FFFFFF" points="81.072,37.842 81.072,34.564 83.411,34.564 83.411,11.19 81.072,11.19 81.072,7.915 88.368,7.915 
			88.368,34.564 90.749,34.564 90.749,37.842 		"/>
		<path fill="#FFFFFF" d="M92.798,37.842v-3.277h2.336V22.59h-2.336v-3.32h7.297v15.294h2.38v3.277H92.798z M97.593,15.744
			c-1.555,0-2.91-1.354-2.91-2.994c0-1.638,1.355-2.951,2.91-2.951c1.601,0,2.872,1.272,2.872,2.911
			C100.465,14.35,99.193,15.744,97.593,15.744"/>
		<path fill="#FFFFFF" d="M116.369,37.842v-3.277h2.424c0.04-2.135,0.08-3.115,0.08-4.922c0-0.82,0.041-2.215-0.04-3.525
			c-0.209-2.378-0.697-3.037-2.175-3.037c-0.981,0-2.009,0.208-2.251,0.371c-0.207,0.124-1.646,1.148-2.543,2.255v8.857h2.38v3.277
			h-9.679v-3.277h2.336v-9.801c0-0.74-0.044-1.475-0.08-2.173h-2.3v-3.32h6.314l0.492,2.174c1.642-1.848,3.487-2.669,5.62-2.669
			c7.542,0,6.929,5.538,6.886,10.334c0,1.926-0.041,3.199-0.081,5.455h2.296v3.277H116.369z"/>
		<path fill="#FFFFFF" d="M135.272,38.373c-2.339,0-3.65-0.162-6.807-0.98v-4.799h3.691v1.766c0.86,0.205,1.721,0.367,2.99,0.367
			c2.382,0,2.914-1.146,2.914-1.766c0-2.951-9.633-2.131-9.633-8.812c0-3.32,2.786-5.374,7.664-5.374
			c2.748,0,3.568,0.249,6.396,0.821v4.798h-3.688v-1.515c-1.107-0.33-2.009-0.452-2.954-0.452c-0.574,0-2.459,0.287-2.459,1.558
			c0,2.787,9.715,2.335,9.715,8.57C143.103,35.668,140.398,38.373,135.272,38.373"/>
	</g>
</g>
</svg>
